<svg width="872" height="639" viewBox="0 0 872 639" fill="none" xmlns="http://www.w3.org/2000/svg">
<path d="M275.748 261.623C271.191 253.731 273.895 243.64 281.787 239.084L405.629 167.584C413.52 163.027 423.612 165.731 428.168 173.623V173.623C432.724 181.515 430.02 191.606 422.129 196.162L298.287 267.662C290.395 272.219 280.304 269.515 275.748 261.623V261.623Z" fill="#0D619F"/>
<path d="M300.375 194.319L368.422 155.032L378.627 172.709L310.58 211.996L300.375 194.319Z" fill="#39374D"/>
<path d="M422.129 196.163C414.237 200.719 404.146 198.015 399.589 190.123L372.089 142.492C367.533 134.6 370.237 124.509 378.129 119.952V119.952C386.021 115.396 396.112 118.1 400.668 125.992L428.168 173.623C432.725 181.515 430.021 191.606 422.129 196.163V196.163Z" fill="#0D619F"/>
<circle cx="265.837" cy="264.458" r="26" transform="rotate(-30 265.837 264.458)" fill="white" stroke="#0D619F" stroke-width="12"/>
<path d="M426.828 72.7833C434.72 68.227 444.811 70.9309 449.367 78.8227L520.867 202.664C525.424 210.556 522.72 220.647 514.828 225.204V225.204C506.936 229.76 496.845 227.056 492.288 219.164L420.788 95.3227C416.232 87.4309 418.936 77.3396 426.828 72.7833V72.7833Z" fill="#39374D"/>
<path d="M494.131 97.4105L533.418 165.458L515.742 175.663L476.455 107.616L494.131 97.4105Z" fill="#0D619F"/>
<path d="M492.288 219.164C487.732 211.273 490.436 201.181 498.328 196.625L545.959 169.125C553.851 164.569 563.942 167.273 568.498 175.164V175.164C573.055 183.056 570.351 193.147 562.459 197.704L514.828 225.204C506.936 229.76 496.844 227.056 492.288 219.164V219.164Z" fill="#39374D"/>
<circle cx="423.993" cy="62.8731" r="26" transform="rotate(60 423.993 62.8731)" fill="white" stroke="#39374D" stroke-width="12"/>
<path d="M615.994 224.429C620.55 232.321 617.846 242.412 609.954 246.968L486.113 318.468C478.221 323.025 468.13 320.321 463.573 312.429V312.429C459.017 304.537 461.721 294.446 469.613 289.889L593.454 218.389C601.346 213.833 611.437 216.537 615.994 224.429V224.429Z" fill="#0D619F"/>
<path d="M591.367 291.733L523.319 331.02L513.114 313.343L581.161 274.056L591.367 291.733Z" fill="#39374D"/>
<path d="M469.612 289.889C477.504 285.333 487.596 288.037 492.152 295.929L519.652 343.56C524.208 351.452 521.504 361.543 513.612 366.1V366.1C505.721 370.656 495.629 367.952 491.073 360.06L463.573 312.429C459.017 304.537 461.721 294.446 469.612 289.889V289.889Z" fill="#0D619F"/>
<circle cx="625.904" cy="221.594" r="26" transform="rotate(150 625.904 221.594)" fill="white" stroke="#0D619F" stroke-width="12"/>
<path d="M465.138 413.139C457.246 417.696 447.155 414.992 442.599 407.1L371.099 283.258C366.542 275.366 369.246 265.275 377.138 260.719V260.719C385.03 256.162 395.121 258.866 399.677 266.758L471.177 390.6C475.734 398.492 473.03 408.583 465.138 413.139V413.139Z" fill="#39374D"/>
<path d="M397.834 388.512L358.547 320.465L376.224 310.259L415.511 378.306L397.834 388.512Z" fill="#0D619F"/>
<path d="M399.678 266.758C404.234 274.65 401.53 284.741 393.638 289.298L346.007 316.798C338.115 321.354 328.024 318.65 323.468 310.758V310.758C318.911 302.866 321.615 292.775 329.507 288.219L377.138 260.719C385.03 256.162 395.121 258.866 399.678 266.758V266.758Z" fill="#39374D"/>
<circle cx="467.973" cy="423.049" r="26" transform="rotate(-120 467.973 423.049)" fill="white" stroke="#39374D" stroke-width="12"/>
<path d="M39.0592 587.96C32.4192 587.96 26.6192 586.92 21.6592 584.84C16.7792 582.68 12.9792 579.64 10.2592 575.72C7.61922 571.72 6.29922 567.12 6.29922 561.92V559.64C6.29922 559.24 6.41922 558.92 6.65922 558.68C6.97922 558.36 7.33922 558.2 7.73922 558.2H24.4192C24.8192 558.2 25.1392 558.36 25.3792 558.68C25.6992 558.92 25.8592 559.24 25.8592 559.64V561.08C25.8592 563.72 27.1792 566.04 29.8192 568.04C32.4592 569.96 36.0192 570.92 40.4992 570.92C44.0192 570.92 46.6192 570.16 48.2992 568.64C49.9792 567.12 50.8192 565.36 50.8192 563.36C50.8192 561.76 50.2992 560.48 49.2592 559.52C48.2992 558.48 46.9792 557.64 45.2992 557C43.6192 556.28 41.0192 555.32 37.4992 554.12C37.0192 553.88 36.5392 553.72 36.0592 553.64C35.5792 553.48 35.1392 553.32 34.7392 553.16C29.5392 551.48 25.0192 549.68 21.1792 547.76C17.3392 545.76 14.0592 543.04 11.3392 539.6C8.61922 536.08 7.25922 531.76 7.25922 526.64C7.25922 521.68 8.53922 517.36 11.0992 513.68C13.7392 509.92 17.3792 507.04 22.0192 505.04C26.6592 503.04 31.8992 502.04 37.7392 502.04C43.8992 502.04 49.4192 503.16 54.2992 505.4C59.2592 507.64 63.1392 510.8 65.9392 514.88C68.7392 518.96 70.1392 523.64 70.1392 528.92V530.6C70.1392 531 69.9792 531.36 69.6592 531.68C69.4192 531.92 69.0992 532.04 68.6992 532.04H52.0192C51.6192 532.04 51.2592 531.92 50.9392 531.68C50.6992 531.36 50.5792 531 50.5792 530.6V529.76C50.5792 526.96 49.3392 524.48 46.8592 522.32C44.3792 520.16 41.0592 519.08 36.8992 519.08C33.7792 519.08 31.3392 519.72 29.5792 521C27.8192 522.28 26.9392 524.08 26.9392 526.4C26.9392 528.16 27.4992 529.64 28.6192 530.84C29.7392 531.96 31.4592 533.04 33.7792 534.08C36.1792 535.04 39.8192 536.32 44.6992 537.92C50.2992 539.84 54.6592 541.52 57.7792 542.96C60.8992 544.4 63.8192 546.76 66.5392 550.04C69.3392 553.24 70.7392 557.48 70.7392 562.76C70.7392 567.96 69.4192 572.44 66.7792 576.2C64.1392 579.96 60.4192 582.88 55.6192 584.96C50.8992 586.96 45.3792 587.96 39.0592 587.96ZM150.855 524C157.095 524 161.975 525.92 165.495 529.76C169.015 533.6 170.775 539 170.775 545.96V585.56C170.775 585.96 170.615 586.32 170.295 586.64C170.055 586.88 169.735 587 169.335 587H152.415C152.015 587 151.655 586.88 151.335 586.64C151.095 586.32 150.975 585.96 150.975 585.56V550.28C150.975 547.56 150.255 545.36 148.815 543.68C147.455 541.92 145.615 541.04 143.295 541.04C140.975 541.04 139.055 541.88 137.535 543.56C136.095 545.24 135.375 547.48 135.375 550.28V585.56C135.375 585.96 135.215 586.32 134.895 586.64C134.655 586.88 134.335 587 133.935 587H116.895C116.495 587 116.135 586.88 115.815 586.64C115.575 586.32 115.455 585.96 115.455 585.56V550.28C115.455 547.56 114.695 545.36 113.175 543.68C111.735 541.92 109.855 541.04 107.535 541.04C105.375 541.04 103.575 541.72 102.135 543.08C100.695 544.44 99.8152 546.24 99.4952 548.48V585.56C99.4952 585.96 99.3352 586.32 99.0152 586.64C98.7752 586.88 98.4552 587 98.0552 587H81.0152C80.6152 587 80.2552 586.88 79.9352 586.64C79.6952 586.32 79.5752 585.96 79.5752 585.56V526.4C79.5752 526 79.6952 525.68 79.9352 525.44C80.2552 525.12 80.6152 524.96 81.0152 524.96H98.0552C98.4552 524.96 98.7752 525.12 99.0152 525.44C99.3352 525.68 99.4952 526 99.4952 526.4V531.8C99.4952 532.12 99.5752 532.32 99.7352 532.4C99.8952 532.4 100.055 532.24 100.215 531.92C103.335 526.64 108.455 524 115.575 524C119.575 524 123.095 524.88 126.135 526.64C129.175 528.4 131.495 530.96 133.095 534.32C133.335 534.8 133.575 534.76 133.815 534.2C135.495 530.76 137.775 528.2 140.655 526.52C143.615 524.84 147.015 524 150.855 524ZM206.276 524C211.636 524 216.476 524.92 220.796 526.76C225.116 528.52 228.516 531 230.996 534.2C233.476 537.32 234.716 540.8 234.716 544.64V585.56C234.716 585.96 234.556 586.32 234.236 586.64C233.996 586.88 233.676 587 233.276 587H216.236C215.836 587 215.476 586.88 215.156 586.64C214.916 586.32 214.796 585.96 214.796 585.56V581.36C214.796 581.04 214.716 580.88 214.556 580.88C214.396 580.8 214.236 580.92 214.076 581.24C211.036 585.72 205.836 587.96 198.476 587.96C192.076 587.96 186.956 586.48 183.116 583.52C179.356 580.48 177.476 576.04 177.476 570.2C177.476 564.04 179.596 559.28 183.836 555.92C188.156 552.56 194.396 550.88 202.556 550.88H214.196C214.596 550.88 214.796 550.68 214.796 550.28V548C214.796 545.84 214.076 544.16 212.636 542.96C211.196 541.68 209.196 541.04 206.636 541.04C204.716 541.04 203.036 541.4 201.596 542.12C200.236 542.84 199.356 543.76 198.956 544.88C198.556 545.76 197.996 546.16 197.276 546.08L179.996 543.8C179.036 543.64 178.556 543.28 178.556 542.72C178.876 539.2 180.236 536.04 182.636 533.24C185.116 530.36 188.396 528.12 192.476 526.52C196.636 524.84 201.236 524 206.276 524ZM204.356 573.68C207.396 573.68 209.876 572.92 211.796 571.4C213.796 569.8 214.796 567.72 214.796 565.16V562.28C214.796 561.88 214.596 561.68 214.196 561.68H206.996C203.956 561.68 201.596 562.2 199.916 563.24C198.316 564.28 197.516 565.84 197.516 567.92C197.516 569.68 198.116 571.08 199.316 572.12C200.516 573.16 202.196 573.68 204.356 573.68ZM277.575 524.12C280.455 524.12 282.695 524.64 284.295 525.68C284.935 526.08 285.175 526.68 285.015 527.48L282.255 544.16C282.175 545.12 281.615 545.4 280.575 545C279.135 544.68 277.775 544.52 276.495 544.52C275.135 544.52 274.095 544.6 273.375 544.76C270.895 545.08 268.775 546.04 267.015 547.64C265.335 549.24 264.495 551.36 264.495 554V585.56C264.495 585.96 264.335 586.32 264.015 586.64C263.775 586.88 263.455 587 263.055 587H246.015C245.615 587 245.255 586.88 244.935 586.64C244.695 586.32 244.575 585.96 244.575 585.56V526.4C244.575 526 244.695 525.68 244.935 525.44C245.255 525.12 245.615 524.96 246.015 524.96H263.055C263.455 524.96 263.775 525.12 264.015 525.44C264.335 525.68 264.495 526 264.495 526.4V530.24C264.495 530.48 264.575 530.64 264.735 530.72C264.895 530.8 265.015 530.72 265.095 530.48C268.295 526.24 272.455 524.12 277.575 524.12ZM329.965 539.48C329.965 539.88 329.805 540.24 329.485 540.56C329.245 540.8 328.925 540.92 328.525 540.92H317.605C317.205 540.92 317.005 541.12 317.005 541.52V563.36C317.005 567.92 318.845 570.2 322.525 570.2H326.965C327.365 570.2 327.685 570.36 327.925 570.68C328.245 570.92 328.405 571.24 328.405 571.64V585.56C328.405 586.44 327.925 586.96 326.965 587.12C323.125 587.28 320.325 587.36 318.565 587.36C311.605 587.36 306.445 586.28 303.085 584.12C299.725 581.88 298.005 577.68 297.925 571.52V541.52C297.925 541.12 297.725 540.92 297.325 540.92H290.485C290.085 540.92 289.725 540.8 289.405 540.56C289.165 540.24 289.045 539.88 289.045 539.48V526.4C289.045 526 289.165 525.68 289.405 525.44C289.725 525.12 290.085 524.96 290.485 524.96H297.325C297.725 524.96 297.925 524.76 297.925 524.36V509.84C297.925 509.44 298.045 509.12 298.285 508.88C298.605 508.56 298.965 508.4 299.365 508.4H315.565C315.965 508.4 316.285 508.56 316.525 508.88C316.845 509.12 317.005 509.44 317.005 509.84V524.36C317.005 524.76 317.205 524.96 317.605 524.96H328.525C328.925 524.96 329.245 525.12 329.485 525.44C329.805 525.68 329.965 526 329.965 526.4V539.48ZM369.654 587.96C363.254 587.96 357.614 586.72 352.734 584.24C347.934 581.76 344.174 578.24 341.454 573.68C338.814 569.12 337.494 563.84 337.494 557.84V531.92C337.494 526 338.814 520.8 341.454 516.32C344.174 511.76 347.934 508.24 352.734 505.76C357.614 503.28 363.254 502.04 369.654 502.04C376.054 502.04 381.654 503.24 386.454 505.64C391.334 507.96 395.094 511.28 397.734 515.6C400.454 519.84 401.814 524.76 401.814 530.36C401.814 530.76 401.654 531.08 401.334 531.32C401.094 531.56 400.774 531.68 400.374 531.68L383.334 532.76C382.374 532.76 381.894 532.32 381.894 531.44C381.894 527.68 380.774 524.68 378.534 522.44C376.294 520.2 373.334 519.08 369.654 519.08C365.974 519.08 363.014 520.24 360.774 522.56C358.534 524.8 357.414 527.76 357.414 531.44V558.68C357.414 562.36 358.534 565.32 360.774 567.56C363.014 569.8 365.974 570.92 369.654 570.92C373.334 570.92 376.294 569.8 378.534 567.56C380.774 565.32 381.894 562.36 381.894 558.68C381.894 557.8 382.374 557.36 383.334 557.36L400.374 558.2C400.774 558.2 401.094 558.32 401.334 558.56C401.654 558.8 401.814 559.08 401.814 559.4C401.814 565.08 400.454 570.08 397.734 574.4C395.094 578.72 391.334 582.08 386.454 584.48C381.654 586.8 376.054 587.96 369.654 587.96ZM439.304 587.96C432.104 587.96 425.984 586.04 420.944 582.2C415.904 578.36 412.544 573.16 410.864 566.6C409.904 563.32 409.424 559.72 409.424 555.8C409.424 551.4 409.944 547.52 410.984 544.16C412.824 537.84 416.224 532.92 421.184 529.4C426.224 525.8 432.304 524 439.424 524C446.464 524 452.424 525.8 457.304 529.4C462.184 532.92 465.584 537.8 467.504 544.04C468.624 547.64 469.184 551.48 469.184 555.56C469.184 559.24 468.744 562.76 467.864 566.12C466.184 572.84 462.824 578.16 457.784 582.08C452.744 586 446.584 587.96 439.304 587.96ZM439.304 570.92C441.624 570.92 443.544 570.2 445.064 568.76C446.584 567.24 447.704 565.2 448.424 562.64C448.904 560.56 449.144 558.28 449.144 555.8C449.144 553.4 448.864 551.08 448.304 548.84C447.664 546.36 446.584 544.44 445.064 543.08C443.544 541.72 441.624 541.04 439.304 541.04C434.664 541.04 431.624 543.64 430.184 548.84C429.704 550.76 429.464 553.08 429.464 555.8C429.464 558.28 429.704 560.56 430.184 562.64C430.824 565.2 431.904 567.24 433.424 568.76C435.024 570.2 436.984 570.92 439.304 570.92ZM512.698 524C518.938 524 524.058 526 528.058 530C532.058 533.92 534.058 539.28 534.058 546.08V585.56C534.058 585.96 533.898 586.32 533.578 586.64C533.338 586.88 533.018 587 532.618 587H515.578C515.178 587 514.818 586.88 514.498 586.64C514.258 586.32 514.138 585.96 514.138 585.56V550.4C514.138 547.68 513.378 545.44 511.858 543.68C510.338 541.92 508.378 541.04 505.978 541.04C503.498 541.04 501.498 541.92 499.978 543.68C498.458 545.36 497.698 547.6 497.698 550.4V585.56C497.698 585.96 497.538 586.32 497.218 586.64C496.978 586.88 496.658 587 496.258 587H479.218C478.818 587 478.458 586.88 478.138 586.64C477.898 586.32 477.778 585.96 477.778 585.56V526.4C477.778 526 477.898 525.68 478.138 525.44C478.458 525.12 478.818 524.96 479.218 524.96H496.258C496.658 524.96 496.978 525.12 497.218 525.44C497.538 525.68 497.698 526 497.698 526.4V530.84C497.698 531.16 497.738 531.36 497.818 531.44C497.978 531.44 498.138 531.32 498.298 531.08C501.338 526.36 506.138 524 512.698 524ZM582.035 539.48C582.035 539.88 581.875 540.24 581.555 540.56C581.315 540.8 580.995 540.92 580.595 540.92H569.675C569.275 540.92 569.075 541.12 569.075 541.52V563.36C569.075 567.92 570.915 570.2 574.595 570.2H579.035C579.435 570.2 579.755 570.36 579.995 570.68C580.315 570.92 580.475 571.24 580.475 571.64V585.56C580.475 586.44 579.995 586.96 579.035 587.12C575.195 587.28 572.395 587.36 570.635 587.36C563.675 587.36 558.515 586.28 555.155 584.12C551.795 581.88 550.075 577.68 549.995 571.52V541.52C549.995 541.12 549.795 540.92 549.395 540.92H542.555C542.155 540.92 541.795 540.8 541.475 540.56C541.235 540.24 541.115 539.88 541.115 539.48V526.4C541.115 526 541.235 525.68 541.475 525.44C541.795 525.12 542.155 524.96 542.555 524.96H549.395C549.795 524.96 549.995 524.76 549.995 524.36V509.84C549.995 509.44 550.115 509.12 550.355 508.88C550.675 508.56 551.035 508.4 551.435 508.4H567.635C568.035 508.4 568.355 508.56 568.595 508.88C568.915 509.12 569.075 509.44 569.075 509.84V524.36C569.075 524.76 569.275 524.96 569.675 524.96H580.595C580.995 524.96 581.315 525.12 581.555 525.44C581.875 525.68 582.035 526 582.035 526.4V539.48ZM623.044 524.12C625.924 524.12 628.164 524.64 629.764 525.68C630.404 526.08 630.644 526.68 630.484 527.48L627.724 544.16C627.644 545.12 627.084 545.4 626.044 545C624.604 544.68 623.244 544.52 621.964 544.52C620.604 544.52 619.564 544.6 618.844 544.76C616.364 545.08 614.244 546.04 612.484 547.64C610.804 549.24 609.964 551.36 609.964 554V585.56C609.964 585.96 609.804 586.32 609.484 586.64C609.244 586.88 608.924 587 608.524 587H591.484C591.084 587 590.724 586.88 590.404 586.64C590.164 586.32 590.044 585.96 590.044 585.56V526.4C590.044 526 590.164 525.68 590.404 525.44C590.724 525.12 591.084 524.96 591.484 524.96H608.524C608.924 524.96 609.244 525.12 609.484 525.44C609.804 525.68 609.964 526 609.964 526.4V530.24C609.964 530.48 610.044 530.64 610.204 530.72C610.364 530.8 610.484 530.72 610.564 530.48C613.764 526.24 617.924 524.12 623.044 524.12ZM663.367 587.96C656.167 587.96 650.047 586.04 645.007 582.2C639.967 578.36 636.607 573.16 634.927 566.6C633.967 563.32 633.487 559.72 633.487 555.8C633.487 551.4 634.007 547.52 635.047 544.16C636.887 537.84 640.287 532.92 645.247 529.4C650.287 525.8 656.367 524 663.487 524C670.527 524 676.487 525.8 681.367 529.4C686.247 532.92 689.647 537.8 691.567 544.04C692.687 547.64 693.247 551.48 693.247 555.56C693.247 559.24 692.807 562.76 691.927 566.12C690.247 572.84 686.887 578.16 681.847 582.08C676.807 586 670.647 587.96 663.367 587.96ZM663.367 570.92C665.687 570.92 667.607 570.2 669.127 568.76C670.647 567.24 671.767 565.2 672.487 562.64C672.967 560.56 673.207 558.28 673.207 555.8C673.207 553.4 672.927 551.08 672.367 548.84C671.727 546.36 670.647 544.44 669.127 543.08C667.607 541.72 665.687 541.04 663.367 541.04C658.727 541.04 655.687 543.64 654.247 548.84C653.767 550.76 653.527 553.08 653.527 555.8C653.527 558.28 653.767 560.56 654.247 562.64C654.887 565.2 655.967 567.24 657.487 568.76C659.087 570.2 661.047 570.92 663.367 570.92ZM703.281 587C702.881 587 702.521 586.88 702.201 586.64C701.961 586.32 701.841 585.96 701.841 585.56V504.44C701.841 504.04 701.961 503.72 702.201 503.48C702.521 503.16 702.881 503 703.281 503H720.321C720.721 503 721.041 503.16 721.281 503.48C721.601 503.72 721.761 504.04 721.761 504.44V585.56C721.761 585.96 721.601 586.32 721.281 586.64C721.041 586.88 720.721 587 720.321 587H703.281ZM733.164 587C732.764 587 732.404 586.88 732.084 586.64C731.844 586.32 731.724 585.96 731.724 585.56V504.44C731.724 504.04 731.844 503.72 732.084 503.48C732.404 503.16 732.764 503 733.164 503H750.204C750.604 503 750.924 503.16 751.164 503.48C751.484 503.72 751.644 504.04 751.644 504.44V585.56C751.644 585.96 751.484 586.32 751.164 586.64C750.924 586.88 750.604 587 750.204 587H733.164ZM819.086 550.52C819.486 552.92 819.606 556.08 819.446 560C819.366 560.96 818.846 561.44 817.886 561.44H781.286C781.126 561.44 780.966 561.52 780.806 561.68C780.646 561.76 780.606 561.88 780.686 562.04C780.846 562.92 781.246 564.08 781.886 565.52C782.846 567.2 784.286 568.56 786.206 569.6C788.126 570.64 790.486 571.16 793.286 571.16C798.326 571.16 802.286 569.52 805.166 566.24C805.486 565.84 805.846 565.64 806.246 565.64C806.646 565.64 806.966 565.8 807.206 566.12L816.446 576.68C816.766 576.92 816.926 577.24 816.926 577.64C816.926 577.96 816.766 578.28 816.446 578.6C813.646 581.64 810.166 583.96 806.006 585.56C801.926 587.16 797.446 587.96 792.566 587.96C785.286 587.96 779.086 586.4 773.966 583.28C768.926 580.08 765.286 575.64 763.046 569.96C761.366 565.96 760.526 560.96 760.526 554.96C760.526 550.8 761.166 546.8 762.446 542.96C764.526 537.04 767.926 532.4 772.646 529.04C777.446 525.6 783.126 523.88 789.686 523.88C794.966 523.88 799.686 525.04 803.846 527.36C808.006 529.6 811.366 532.76 813.926 536.84C816.566 540.84 818.286 545.4 819.086 550.52ZM789.686 541.04C785.526 541.04 782.766 543 781.406 546.92C781.086 547.8 780.886 548.64 780.806 549.44C780.646 549.84 780.806 550.04 781.286 550.04H798.326C798.646 550.04 798.806 549.88 798.806 549.56C798.806 548.92 798.646 548.12 798.326 547.16C797.766 545.16 796.726 543.64 795.206 542.6C793.766 541.56 791.926 541.04 789.686 541.04ZM860.583 524.12C863.463 524.12 865.703 524.64 867.303 525.68C867.943 526.08 868.183 526.68 868.023 527.48L865.263 544.16C865.183 545.12 864.623 545.4 863.583 545C862.143 544.68 860.783 544.52 859.503 544.52C858.143 544.52 857.103 544.6 856.383 544.76C853.903 545.08 851.783 546.04 850.023 547.64C848.343 549.24 847.503 551.36 847.503 554V585.56C847.503 585.96 847.343 586.32 847.023 586.64C846.783 586.88 846.463 587 846.063 587H829.023C828.623 587 828.263 586.88 827.943 586.64C827.703 586.32 827.583 585.96 827.583 585.56V526.4C827.583 526 827.703 525.68 827.943 525.44C828.263 525.12 828.623 524.96 829.023 524.96H846.063C846.463 524.96 846.783 525.12 847.023 525.44C847.343 525.68 847.503 526 847.503 526.4V530.24C847.503 530.48 847.583 530.64 847.743 530.72C847.903 530.8 848.023 530.72 848.103 530.48C851.303 526.24 855.463 524.12 860.583 524.12Z" fill="#333350"/>
<path d="M484.58 632.24C483.1 632.24 481.81 631.87 480.71 631.13C479.61 630.37 478.84 629.32 478.4 627.98C478.04 626.9 477.86 625.68 477.86 624.32C477.86 622.9 478.03 621.7 478.37 620.72C478.81 619.4 479.58 618.37 480.68 617.63C481.78 616.87 483.09 616.49 484.61 616.49C486.05 616.49 487.3 616.87 488.36 617.63C489.44 618.37 490.21 619.39 490.67 620.69C491.03 621.71 491.21 622.91 491.21 624.29C491.21 625.69 491.03 626.92 490.67 627.98C490.23 629.32 489.47 630.37 488.39 631.13C487.31 631.87 486.04 632.24 484.58 632.24ZM484.58 629.75C485.38 629.75 486.08 629.53 486.68 629.09C487.28 628.63 487.71 627.99 487.97 627.17C488.19 626.41 488.3 625.47 488.3 624.35C488.3 623.23 488.2 622.3 488 621.56C487.74 620.74 487.31 620.11 486.71 619.67C486.11 619.21 485.38 618.98 484.52 618.98C483.7 618.98 482.99 619.21 482.39 619.67C481.79 620.11 481.36 620.74 481.1 621.56C480.88 622.26 480.77 623.19 480.77 624.35C480.77 625.51 480.88 626.45 481.1 627.17C481.34 627.99 481.76 628.63 482.36 629.09C482.98 629.53 483.72 629.75 484.58 629.75ZM514.871 620.57C515.251 621.65 515.441 622.93 515.441 624.41C515.441 625.81 515.281 627.02 514.961 628.04C514.541 629.38 513.851 630.42 512.891 631.16C511.931 631.88 510.701 632.24 509.201 632.24C508.521 632.24 507.871 632.11 507.251 631.85C506.651 631.57 506.131 631.18 505.691 630.68C505.651 630.64 505.611 630.63 505.571 630.65C505.551 630.67 505.541 630.7 505.541 630.74V637.43C505.541 637.63 505.441 637.73 505.241 637.73H502.961C502.761 637.73 502.661 637.63 502.661 637.43V617.03C502.661 616.83 502.761 616.73 502.961 616.73H505.241C505.441 616.73 505.541 616.83 505.541 617.03V618.02C505.541 618.06 505.551 618.09 505.571 618.11C505.611 618.13 505.651 618.12 505.691 618.08C506.131 617.58 506.651 617.19 507.251 616.91C507.851 616.63 508.501 616.49 509.201 616.49C510.641 616.49 511.831 616.85 512.771 617.57C513.731 618.27 514.431 619.27 514.871 620.57ZM511.571 628.31C512.211 627.35 512.531 626.03 512.531 624.35C512.531 622.81 512.281 621.57 511.781 620.63C511.201 619.53 510.251 618.98 508.931 618.98C507.771 618.98 506.891 619.52 506.291 620.6C505.811 621.46 505.571 622.72 505.571 624.38C505.571 626.06 505.831 627.34 506.351 628.22C506.931 629.24 507.781 629.75 508.901 629.75C510.101 629.75 510.991 629.27 511.571 628.31ZM538.894 622.46C538.974 623.28 539.004 624.2 538.984 625.22C538.984 625.42 538.884 625.52 538.684 625.52H529.114C529.034 625.52 528.994 625.56 528.994 625.64C528.994 626.32 529.054 626.84 529.174 627.2C529.394 628 529.834 628.63 530.494 629.09C531.174 629.53 532.024 629.75 533.044 629.75C534.524 629.75 535.664 629.14 536.464 627.92C536.564 627.72 536.694 627.69 536.854 627.83L538.564 628.97C538.704 629.09 538.734 629.22 538.654 629.36C538.094 630.26 537.294 630.97 536.254 631.49C535.234 632.01 534.074 632.27 532.774 632.27C531.314 632.27 530.084 631.95 529.084 631.31C528.084 630.67 527.334 629.76 526.834 628.58C526.354 627.4 526.114 625.97 526.114 624.29C526.114 622.83 526.224 621.72 526.444 620.96C526.804 619.58 527.524 618.49 528.604 617.69C529.684 616.89 530.994 616.49 532.534 616.49C534.554 616.49 536.064 617 537.064 618.02C538.064 619.02 538.674 620.5 538.894 622.46ZM532.534 618.98C531.674 618.98 530.964 619.2 530.404 619.64C529.844 620.06 529.464 620.63 529.264 621.35C529.124 621.79 529.034 622.35 528.994 623.03C528.994 623.11 529.034 623.15 529.114 623.15H535.984C536.064 623.15 536.104 623.11 536.104 623.03C536.064 622.37 536.004 621.88 535.924 621.56C535.724 620.78 535.324 620.16 534.724 619.7C534.144 619.22 533.414 618.98 532.534 618.98ZM556.928 616.52C558.568 616.52 559.868 617 560.828 617.96C561.788 618.9 562.268 620.18 562.268 621.8V631.7C562.268 631.9 562.168 632 561.968 632H559.688C559.488 632 559.388 631.9 559.388 631.7V622.37C559.388 621.37 559.098 620.56 558.518 619.94C557.938 619.32 557.168 619.01 556.208 619.01C555.268 619.01 554.498 619.32 553.898 619.94C553.298 620.56 552.998 621.36 552.998 622.34V631.7C552.998 631.9 552.898 632 552.698 632H550.418C550.218 632 550.118 631.9 550.118 631.7V617.03C550.118 616.83 550.218 616.73 550.418 616.73H552.698C552.898 616.73 552.998 616.83 552.998 617.03V618.11C552.998 618.15 553.008 618.18 553.028 618.2C553.068 618.22 553.098 618.21 553.118 618.17C553.978 617.07 555.248 616.52 556.928 616.52ZM579.247 632.18C578.047 632.18 576.987 632 576.067 631.64C575.167 631.28 574.467 630.79 573.967 630.17C573.467 629.53 573.217 628.83 573.217 628.07V627.74C573.217 627.54 573.317 627.44 573.517 627.44H575.677C575.877 627.44 575.977 627.54 575.977 627.74V627.89C575.977 628.45 576.277 628.94 576.877 629.36C577.497 629.78 578.277 629.99 579.217 629.99C580.117 629.99 580.847 629.8 581.407 629.42C581.967 629.02 582.247 628.52 582.247 627.92C582.247 627.34 581.987 626.91 581.467 626.63C580.947 626.33 580.107 626.02 578.947 625.7C577.807 625.38 576.847 625.06 576.067 624.74C575.307 624.4 574.657 623.93 574.117 623.33C573.597 622.71 573.337 621.92 573.337 620.96C573.337 619.62 573.857 618.56 574.897 617.78C575.957 616.98 577.357 616.58 579.097 616.58C580.257 616.58 581.277 616.77 582.157 617.15C583.057 617.51 583.747 618.02 584.227 618.68C584.707 619.34 584.947 620.08 584.947 620.9V620.99C584.947 621.19 584.847 621.29 584.647 621.29H582.547C582.347 621.29 582.247 621.19 582.247 620.99V620.9C582.247 620.32 581.957 619.84 581.377 619.46C580.817 619.06 580.047 618.86 579.067 618.86C578.187 618.86 577.467 619.03 576.907 619.37C576.367 619.71 576.097 620.17 576.097 620.75C576.097 621.33 576.357 621.77 576.877 622.07C577.417 622.37 578.277 622.69 579.457 623.03C580.617 623.35 581.577 623.67 582.337 623.99C583.117 624.29 583.777 624.75 584.317 625.37C584.857 625.97 585.127 626.76 585.127 627.74C585.127 629.1 584.587 630.18 583.507 630.98C582.447 631.78 581.027 632.18 579.247 632.18ZM602.236 632.24C600.756 632.24 599.466 631.87 598.366 631.13C597.266 630.37 596.496 629.32 596.056 627.98C595.696 626.9 595.516 625.68 595.516 624.32C595.516 622.9 595.686 621.7 596.026 620.72C596.466 619.4 597.236 618.37 598.336 617.63C599.436 616.87 600.746 616.49 602.266 616.49C603.706 616.49 604.956 616.87 606.016 617.63C607.096 618.37 607.866 619.39 608.326 620.69C608.686 621.71 608.866 622.91 608.866 624.29C608.866 625.69 608.686 626.92 608.326 627.98C607.886 629.32 607.126 630.37 606.046 631.13C604.966 631.87 603.696 632.24 602.236 632.24ZM602.236 629.75C603.036 629.75 603.736 629.53 604.336 629.09C604.936 628.63 605.366 627.99 605.626 627.17C605.846 626.41 605.956 625.47 605.956 624.35C605.956 623.23 605.856 622.3 605.656 621.56C605.396 620.74 604.966 620.11 604.366 619.67C603.766 619.21 603.036 618.98 602.176 618.98C601.356 618.98 600.646 619.21 600.046 619.67C599.446 620.11 599.016 620.74 598.756 621.56C598.536 622.26 598.426 623.19 598.426 624.35C598.426 625.51 598.536 626.45 598.756 627.17C598.996 627.99 599.416 628.63 600.016 629.09C600.636 629.53 601.376 629.75 602.236 629.75ZM629.227 617.03C629.227 616.83 629.327 616.73 629.527 616.73H631.777C631.977 616.73 632.077 616.83 632.077 617.03V631.7C632.077 631.9 631.977 632 631.777 632H629.527C629.327 632 629.227 631.9 629.227 631.7V630.59C629.227 630.55 629.207 630.53 629.167 630.53C629.147 630.51 629.117 630.52 629.077 630.56C628.277 631.66 627.047 632.21 625.387 632.21C624.407 632.21 623.497 632.02 622.657 631.64C621.837 631.26 621.177 630.7 620.677 629.96C620.177 629.22 619.927 628.32 619.927 627.26V617.03C619.927 616.83 620.027 616.73 620.227 616.73H622.477C622.677 616.73 622.777 616.83 622.777 617.03V626.36C622.777 627.4 623.047 628.22 623.587 628.82C624.147 629.42 624.927 629.72 625.927 629.72C626.927 629.72 627.727 629.42 628.327 628.82C628.927 628.2 629.227 627.38 629.227 626.36V617.03ZM650.47 616.58C651.11 616.58 651.69 616.71 652.21 616.97C652.35 617.03 652.4 617.15 652.36 617.33L651.88 619.58C651.86 619.76 651.74 619.82 651.52 619.76C651.18 619.62 650.78 619.55 650.32 619.55L649.9 619.58C648.96 619.62 648.18 619.95 647.56 620.57C646.96 621.17 646.66 621.96 646.66 622.94V631.7C646.66 631.9 646.56 632 646.36 632H644.08C643.88 632 643.78 631.9 643.78 631.7V617.03C643.78 616.83 643.88 616.73 644.08 616.73H646.36C646.56 616.73 646.66 616.83 646.66 617.03V618.62C646.66 618.68 646.67 618.72 646.69 618.74C646.73 618.74 646.76 618.72 646.78 618.68C647.68 617.28 648.91 616.58 650.47 616.58ZM668.298 632.24C666.778 632.24 665.478 631.86 664.398 631.1C663.318 630.32 662.578 629.27 662.178 627.95C661.878 627.03 661.728 625.82 661.728 624.32C661.728 622.94 661.878 621.73 662.178 620.69C662.578 619.41 663.318 618.39 664.398 617.63C665.498 616.87 666.798 616.49 668.298 616.49C669.798 616.49 671.108 616.87 672.228 617.63C673.348 618.39 674.078 619.35 674.418 620.51C674.538 620.83 674.618 621.16 674.658 621.5C674.658 621.66 674.568 621.76 674.388 621.8L672.138 622.13H672.078C671.938 622.13 671.838 622.04 671.778 621.86L671.688 621.38C671.528 620.7 671.138 620.13 670.518 619.67C669.898 619.21 669.148 618.98 668.268 618.98C667.408 618.98 666.678 619.21 666.078 619.67C665.478 620.13 665.088 620.74 664.908 621.5C664.728 622.22 664.638 623.17 664.638 624.35C664.638 625.51 664.728 626.45 664.908 627.17C665.108 627.97 665.498 628.6 666.078 629.06C666.678 629.52 667.408 629.75 668.268 629.75C669.148 629.75 669.898 629.52 670.518 629.06C671.158 628.6 671.558 628 671.718 627.26C671.738 627.24 671.738 627.22 671.718 627.2C671.718 627.16 671.728 627.13 671.748 627.11V626.99C671.808 626.83 671.918 626.77 672.078 626.81L674.328 627.17C674.488 627.21 674.568 627.29 674.568 627.41V627.53C674.568 627.71 674.518 627.93 674.418 628.19C674.078 629.41 673.348 630.39 672.228 631.13C671.108 631.87 669.798 632.24 668.298 632.24ZM697.712 622.46C697.792 623.28 697.822 624.2 697.802 625.22C697.802 625.42 697.702 625.52 697.502 625.52H687.932C687.852 625.52 687.812 625.56 687.812 625.64C687.812 626.32 687.872 626.84 687.992 627.2C688.212 628 688.652 628.63 689.312 629.09C689.992 629.53 690.842 629.75 691.862 629.75C693.342 629.75 694.482 629.14 695.282 627.92C695.382 627.72 695.512 627.69 695.672 627.83L697.382 628.97C697.522 629.09 697.552 629.22 697.472 629.36C696.912 630.26 696.112 630.97 695.072 631.49C694.052 632.01 692.892 632.27 691.592 632.27C690.132 632.27 688.902 631.95 687.902 631.31C686.902 630.67 686.152 629.76 685.652 628.58C685.172 627.4 684.932 625.97 684.932 624.29C684.932 622.83 685.042 621.72 685.262 620.96C685.622 619.58 686.342 618.49 687.422 617.69C688.502 616.89 689.812 616.49 691.352 616.49C693.372 616.49 694.882 617 695.882 618.02C696.882 619.02 697.492 620.5 697.712 622.46ZM691.352 618.98C690.492 618.98 689.782 619.2 689.222 619.64C688.662 620.06 688.282 620.63 688.082 621.35C687.942 621.79 687.852 622.35 687.812 623.03C687.812 623.11 687.852 623.15 687.932 623.15H694.802C694.882 623.15 694.922 623.11 694.922 623.03C694.882 622.37 694.822 621.88 694.742 621.56C694.542 620.78 694.142 620.16 693.542 619.7C692.962 619.22 692.232 618.98 691.352 618.98ZM734.832 620.57C735.212 621.65 735.402 622.93 735.402 624.41C735.402 625.81 735.242 627.02 734.922 628.04C734.502 629.38 733.812 630.42 732.852 631.16C731.892 631.88 730.662 632.24 729.162 632.24C728.482 632.24 727.832 632.11 727.212 631.85C726.612 631.57 726.092 631.18 725.652 630.68C725.612 630.64 725.572 630.63 725.532 630.65C725.512 630.67 725.502 630.7 725.502 630.74V637.43C725.502 637.63 725.402 637.73 725.202 637.73H722.922C722.722 637.73 722.622 637.63 722.622 637.43V617.03C722.622 616.83 722.722 616.73 722.922 616.73H725.202C725.402 616.73 725.502 616.83 725.502 617.03V618.02C725.502 618.06 725.512 618.09 725.532 618.11C725.572 618.13 725.612 618.12 725.652 618.08C726.092 617.58 726.612 617.19 727.212 616.91C727.812 616.63 728.462 616.49 729.162 616.49C730.602 616.49 731.792 616.85 732.732 617.57C733.692 618.27 734.392 619.27 734.832 620.57ZM731.532 628.31C732.172 627.35 732.492 626.03 732.492 624.35C732.492 622.81 732.242 621.57 731.742 620.63C731.162 619.53 730.212 618.98 728.892 618.98C727.732 618.98 726.852 619.52 726.252 620.6C725.772 621.46 725.532 622.72 725.532 624.38C725.532 626.06 725.792 627.34 726.312 628.22C726.892 629.24 727.742 629.75 728.862 629.75C730.062 629.75 730.952 629.27 731.532 628.31ZM753.36 616.58C754 616.58 754.58 616.71 755.1 616.97C755.24 617.03 755.29 617.15 755.25 617.33L754.77 619.58C754.75 619.76 754.63 619.82 754.41 619.76C754.07 619.62 753.67 619.55 753.21 619.55L752.79 619.58C751.85 619.62 751.07 619.95 750.45 620.57C749.85 621.17 749.55 621.96 749.55 622.94V631.7C749.55 631.9 749.45 632 749.25 632H746.97C746.77 632 746.67 631.9 746.67 631.7V617.03C746.67 616.83 746.77 616.73 746.97 616.73H749.25C749.45 616.73 749.55 616.83 749.55 617.03V618.62C749.55 618.68 749.56 618.72 749.58 618.74C749.62 618.74 749.65 618.72 749.67 618.68C750.57 617.28 751.8 616.58 753.36 616.58ZM771.309 632.24C769.829 632.24 768.539 631.87 767.439 631.13C766.339 630.37 765.569 629.32 765.129 627.98C764.769 626.9 764.589 625.68 764.589 624.32C764.589 622.9 764.759 621.7 765.099 620.72C765.539 619.4 766.309 618.37 767.409 617.63C768.509 616.87 769.819 616.49 771.339 616.49C772.779 616.49 774.029 616.87 775.089 617.63C776.169 618.37 776.939 619.39 777.399 620.69C777.759 621.71 777.939 622.91 777.939 624.29C777.939 625.69 777.759 626.92 777.399 627.98C776.959 629.32 776.199 630.37 775.119 631.13C774.039 631.87 772.769 632.24 771.309 632.24ZM771.309 629.75C772.109 629.75 772.809 629.53 773.409 629.09C774.009 628.63 774.439 627.99 774.699 627.17C774.919 626.41 775.029 625.47 775.029 624.35C775.029 623.23 774.929 622.3 774.729 621.56C774.469 620.74 774.039 620.11 773.439 619.67C772.839 619.21 772.109 618.98 771.249 618.98C770.429 618.98 769.719 619.21 769.119 619.67C768.519 620.11 768.089 620.74 767.829 621.56C767.609 622.26 767.499 623.19 767.499 624.35C767.499 625.51 767.609 626.45 767.829 627.17C768.069 627.99 768.489 628.63 769.089 629.09C769.709 629.53 770.449 629.75 771.309 629.75ZM790.739 614.33C790.179 614.33 789.719 614.15 789.359 613.79C788.999 613.43 788.819 612.97 788.819 612.41C788.819 611.85 788.999 611.39 789.359 611.03C789.719 610.67 790.179 610.49 790.739 610.49C791.319 610.49 791.779 610.67 792.119 611.03C792.479 611.37 792.659 611.83 792.659 612.41C792.659 612.97 792.479 613.43 792.119 613.79C791.759 614.15 791.299 614.33 790.739 614.33ZM786.089 638.21C785.889 638.21 785.789 638.11 785.789 637.91V636.05C785.789 635.85 785.889 635.75 786.089 635.75C787.229 635.75 788.049 635.52 788.549 635.06C789.069 634.6 789.329 633.87 789.329 632.87L789.299 617.03C789.299 616.83 789.399 616.73 789.599 616.73H791.879C792.079 616.73 792.179 616.83 792.179 617.03V632.84C792.179 634.16 791.979 635.21 791.579 635.99C791.179 636.77 790.539 637.34 789.659 637.7C788.779 638.06 787.589 638.23 786.089 638.21ZM816.511 622.46C816.591 623.28 816.621 624.2 816.601 625.22C816.601 625.42 816.501 625.52 816.301 625.52H806.731C806.651 625.52 806.611 625.56 806.611 625.64C806.611 626.32 806.671 626.84 806.791 627.2C807.011 628 807.451 628.63 808.111 629.09C808.791 629.53 809.641 629.75 810.661 629.75C812.141 629.75 813.281 629.14 814.081 627.92C814.181 627.72 814.311 627.69 814.471 627.83L816.181 628.97C816.321 629.09 816.351 629.22 816.271 629.36C815.711 630.26 814.911 630.97 813.871 631.49C812.851 632.01 811.691 632.27 810.391 632.27C808.931 632.27 807.701 631.95 806.701 631.31C805.701 630.67 804.951 629.76 804.451 628.58C803.971 627.4 803.731 625.97 803.731 624.29C803.731 622.83 803.841 621.72 804.061 620.96C804.421 619.58 805.141 618.49 806.221 617.69C807.301 616.89 808.611 616.49 810.151 616.49C812.171 616.49 813.681 617 814.681 618.02C815.681 619.02 816.291 620.5 816.511 622.46ZM810.151 618.98C809.291 618.98 808.581 619.2 808.021 619.64C807.461 620.06 807.081 620.63 806.881 621.35C806.741 621.79 806.651 622.35 806.611 623.03C806.611 623.11 806.651 623.15 806.731 623.15H813.601C813.681 623.15 813.721 623.11 813.721 623.03C813.681 622.37 813.621 621.88 813.541 621.56C813.341 620.78 812.941 620.16 812.341 619.7C811.761 619.22 811.031 618.98 810.151 618.98ZM833.855 632.24C832.335 632.24 831.035 631.86 829.955 631.1C828.875 630.32 828.135 629.27 827.735 627.95C827.435 627.03 827.285 625.82 827.285 624.32C827.285 622.94 827.435 621.73 827.735 620.69C828.135 619.41 828.875 618.39 829.955 617.63C831.055 616.87 832.355 616.49 833.855 616.49C835.355 616.49 836.665 616.87 837.785 617.63C838.905 618.39 839.635 619.35 839.975 620.51C840.095 620.83 840.175 621.16 840.215 621.5C840.215 621.66 840.125 621.76 839.945 621.8L837.695 622.13H837.635C837.495 622.13 837.395 622.04 837.335 621.86L837.245 621.38C837.085 620.7 836.695 620.13 836.075 619.67C835.455 619.21 834.705 618.98 833.825 618.98C832.965 618.98 832.235 619.21 831.635 619.67C831.035 620.13 830.645 620.74 830.465 621.5C830.285 622.22 830.195 623.17 830.195 624.35C830.195 625.51 830.285 626.45 830.465 627.17C830.665 627.97 831.055 628.6 831.635 629.06C832.235 629.52 832.965 629.75 833.825 629.75C834.705 629.75 835.455 629.52 836.075 629.06C836.715 628.6 837.115 628 837.275 627.26C837.295 627.24 837.295 627.22 837.275 627.2C837.275 627.16 837.285 627.13 837.305 627.11V626.99C837.365 626.83 837.475 626.77 837.635 626.81L839.885 627.17C840.045 627.21 840.125 627.29 840.125 627.41V627.53C840.125 627.71 840.075 627.93 839.975 628.19C839.635 629.41 838.905 630.39 837.785 631.13C836.665 631.87 835.355 632.24 833.855 632.24ZM858.556 618.8C858.556 619 858.456 619.1 858.256 619.1H855.016C854.936 619.1 854.896 619.14 854.896 619.22V627.17C854.896 628.01 855.086 628.62 855.466 629C855.846 629.36 856.436 629.54 857.236 629.54H858.106C858.306 629.54 858.406 629.64 858.406 629.84V631.7C858.406 631.9 858.306 632 858.106 632C857.466 632.04 857.006 632.06 856.726 632.06C855.206 632.06 854.056 631.79 853.276 631.25C852.516 630.69 852.136 629.67 852.136 628.19V619.22C852.136 619.14 852.096 619.1 852.016 619.1H850.186C849.986 619.1 849.886 619 849.886 618.8V617.03C849.886 616.83 849.986 616.73 850.186 616.73H852.016C852.096 616.73 852.136 616.69 852.136 616.61V613.07C852.136 612.87 852.236 612.77 852.436 612.77H854.596C854.796 612.77 854.896 612.87 854.896 613.07V616.61C854.896 616.69 854.936 616.73 855.016 616.73H858.256C858.456 616.73 858.556 616.83 858.556 617.03V618.8Z" fill="#8FB0C7"/>
</svg>