<?xml version="1.0" encoding="UTF-8" standalone="no"?>
<svg
   xmlns:dc="http://purl.org/dc/elements/1.1/"
   xmlns:cc="http://creativecommons.org/ns#"
   xmlns:rdf="http://www.w3.org/1999/02/22-rdf-syntax-ns#"
   xmlns:svg="http://www.w3.org/2000/svg"
   xmlns="http://www.w3.org/2000/svg"
   xmlns:sodipodi="http://sodipodi.sourceforge.net/DTD/sodipodi-0.dtd"
   xmlns:inkscape="http://www.inkscape.org/namespaces/inkscape"
   width="872"
   height="639"
   viewBox="0 0 872 639"
   fill="none"
   version="1.1"
   id="svg906"
   sodipodi:docname="SmartController_icon.svg"
   inkscape:version="0.92.4 (5da689c313, 2019-01-14)">
  <metadata
     id="metadata912">
    <rdf:RDF>
      <cc:Work
         rdf:about="">
        <dc:format>image/svg+xml</dc:format>
        <dc:type
           rdf:resource="http://purl.org/dc/dcmitype/StillImage" />
        <dc:title></dc:title>
      </cc:Work>
    </rdf:RDF>
  </metadata>
  <defs
     id="defs910" />
  <sodipodi:namedview
     pagecolor="#ffffff"
     bordercolor="#666666"
     borderopacity="1"
     objecttolerance="10"
     gridtolerance="10"
     guidetolerance="10"
     inkscape:pageopacity="0"
     inkscape:pageshadow="2"
     inkscape:window-width="1920"
     inkscape:window-height="1137"
     id="namedview908"
     showgrid="false"
     inkscape:zoom="0.36932707"
     inkscape:cx="436"
     inkscape:cy="319.5"
     inkscape:window-x="-8"
     inkscape:window-y="58"
     inkscape:window-maximized="1"
     inkscape:current-layer="svg906" />
  <path
     d="M275.748 261.623C271.191 253.731 273.895 243.64 281.787 239.084L405.629 167.584C413.52 163.027 423.612 165.731 428.168 173.623V173.623C432.724 181.515 430.02 191.606 422.129 196.162L298.287 267.662C290.395 272.219 280.304 269.515 275.748 261.623V261.623Z"
     fill="#0D619F"
     id="path870" />
  <path
     d="M300.375 194.319L368.422 155.032L378.627 172.709L310.58 211.996L300.375 194.319Z"
     fill="#39374D"
     id="path872" />
  <path
     d="M422.129 196.163C414.237 200.719 404.146 198.015 399.589 190.123L372.089 142.492C367.533 134.6 370.237 124.509 378.129 119.952V119.952C386.021 115.396 396.112 118.1 400.668 125.992L428.168 173.623C432.725 181.515 430.021 191.606 422.129 196.163V196.163Z"
     fill="#0D619F"
     id="path874" />
  <circle
     cx="265.837"
     cy="264.458"
     r="26"
     transform="rotate(-30 265.837 264.458)"
     fill="white"
     stroke="#0D619F"
     stroke-width="12"
     id="circle876" />
  <path
     d="M426.828 72.7833C434.72 68.227 444.811 70.9309 449.367 78.8227L520.867 202.664C525.424 210.556 522.72 220.647 514.828 225.204V225.204C506.936 229.76 496.845 227.056 492.288 219.164L420.788 95.3227C416.232 87.4309 418.936 77.3396 426.828 72.7833V72.7833Z"
     fill="#39374D"
     id="path878" />
  <path
     d="M494.131 97.4105L533.418 165.458L515.742 175.663L476.455 107.616L494.131 97.4105Z"
     fill="#0D619F"
     id="path880" />
  <path
     d="M492.288 219.164C487.732 211.273 490.436 201.181 498.328 196.625L545.959 169.125C553.851 164.569 563.942 167.273 568.498 175.164V175.164C573.055 183.056 570.351 193.147 562.459 197.704L514.828 225.204C506.936 229.76 496.844 227.056 492.288 219.164V219.164Z"
     fill="#39374D"
     id="path882" />
  <circle
     cx="423.993"
     cy="62.8731"
     r="26"
     transform="rotate(60 423.993 62.8731)"
     fill="white"
     stroke="#39374D"
     stroke-width="12"
     id="circle884" />
  <path
     d="M615.994 224.429C620.55 232.321 617.846 242.412 609.954 246.968L486.113 318.468C478.221 323.025 468.13 320.321 463.573 312.429V312.429C459.017 304.537 461.721 294.446 469.613 289.889L593.454 218.389C601.346 213.833 611.437 216.537 615.994 224.429V224.429Z"
     fill="#0D619F"
     id="path886" />
  <path
     d="M591.367 291.733L523.319 331.02L513.114 313.343L581.161 274.056L591.367 291.733Z"
     fill="#39374D"
     id="path888" />
  <path
     d="M469.612 289.889C477.504 285.333 487.596 288.037 492.152 295.929L519.652 343.56C524.208 351.452 521.504 361.543 513.612 366.1V366.1C505.721 370.656 495.629 367.952 491.073 360.06L463.573 312.429C459.017 304.537 461.721 294.446 469.612 289.889V289.889Z"
     fill="#0D619F"
     id="path890" />
  <circle
     cx="625.904"
     cy="221.594"
     r="26"
     transform="rotate(150 625.904 221.594)"
     fill="white"
     stroke="#0D619F"
     stroke-width="12"
     id="circle892" />
  <path
     d="M465.138 413.139C457.246 417.696 447.155 414.992 442.599 407.1L371.099 283.258C366.542 275.366 369.246 265.275 377.138 260.719V260.719C385.03 256.162 395.121 258.866 399.677 266.758L471.177 390.6C475.734 398.492 473.03 408.583 465.138 413.139V413.139Z"
     fill="#39374D"
     id="path894" />
  <path
     d="M397.834 388.512L358.547 320.465L376.224 310.259L415.511 378.306L397.834 388.512Z"
     fill="#0D619F"
     id="path896" />
  <path
     d="M399.678 266.758C404.234 274.65 401.53 284.741 393.638 289.298L346.007 316.798C338.115 321.354 328.024 318.65 323.468 310.758V310.758C318.911 302.866 321.615 292.775 329.507 288.219L377.138 260.719C385.03 256.162 395.121 258.866 399.678 266.758V266.758Z"
     fill="#39374D"
     id="path898" />
  <circle
     cx="467.973"
     cy="423.049"
     r="26"
     transform="rotate(-120 467.973 423.049)"
     fill="white"
     stroke="#39374D"
     stroke-width="12"
     id="circle900" />
</svg>
